<svg id="Capa_1" enable-background="new 0 0 512 512" height="512" viewBox="0 0 512 512" width="512" xmlns="http://www.w3.org/2000/svg"><g><g><path clip-rule="evenodd" d="m422.575 152.527h-251.74c-6.576 6.477-15.619 10.493-25.596 10.493h-28.856c-1.446 24.55 1.956 48.958 9.468 70.934h288.165c8.587-25.087 11.819-53.37 8.559-81.427z" fill="#ffe6b4" fill-rule="evenodd"/></g><g><path clip-rule="evenodd" d="m116.127 72.147c-6.293-10.804-18.028-18.044-31.464-18.044-15.307 0-28.403 9.447-33.76 22.796-22.79 1.187-40.903 19.996-40.903 43.046 0 23.786 19.332 43.075 43.171 43.075h63.211 28.856c9.978 0 19.02-4.016 25.596-10.493 6.661-6.59 10.8-15.725 10.8-25.822 0-9.022-3.316-17.309-8.787-23.673-3.487-4.016-7.852-7.297-12.784-9.475-1.502-8.145-6.548-15.216-13.379-19.713-8.589-5.628-19.956-7.212-30.557-1.697z" fill="#dae6e6" fill-rule="evenodd"/></g><g><path clip-rule="evenodd" d="m269.62 10.547c-38.947.057-78.547 14.255-107.573 44.574-5.669 5.939-10.8 12.218-15.363 18.723 6.831 4.497 11.877 11.568 13.379 19.713 4.932 2.178 9.297 5.459 12.784 9.475h38.579c3.118-17.224 7.512-33.515 13.266-47.911 12.132-30.206 28.658-44.404 44.928-44.574z" fill="#ffcd69" fill-rule="evenodd"/></g><g><path clip-rule="evenodd" d="m224.692 55.121c-5.754 14.396-10.148 30.687-13.266 47.911h117.012c-3.118-17.224-7.512-33.515-13.266-47.911-12.189-30.319-28.771-44.517-45.127-44.574h-.113-.113c-.085 0-.142 0-.198 0-16.271.17-32.797 14.368-44.929 44.574z" fill="#ff7b79" fill-rule="evenodd"/></g><g><path clip-rule="evenodd" d="m270.244 10.547c-.057 0-.113 0-.198 0zm44.928 44.574c5.754 14.396 10.148 30.687 13.266 47.911h81.041c-7.427-17.224-17.886-33.515-31.662-47.911-29.026-30.319-68.625-44.517-107.573-44.574 16.27.17 32.796 14.368 44.928 44.574z" fill="#ffcd69" fill-rule="evenodd"/></g><g><path clip-rule="evenodd" d="m328.438 103.032h-117.012-38.579c5.471 6.364 8.787 14.651 8.787 23.673 0 10.097-4.138 19.232-10.8 25.822h251.74c-1.956-16.828-6.236-33.543-13.096-49.495z" fill="#a0e5a5" fill-rule="evenodd"/></g><g><path clip-rule="evenodd" d="m414.014 233.953h-288.164c5.783 16.8 13.946 32.186 24.179 45.111 1.191 1.499 2.324 2.941 3.43 4.356h67.633 97.68 67.633c1.105-1.414 2.239-2.857 3.43-4.356 8.305-10.465 15.222-22.542 20.636-35.693 1.247-3.082 2.438-6.25 3.543-9.418z" fill="#a0e5a5" fill-rule="evenodd"/></g><g><path clip-rule="evenodd" d="m410.471 243.372c-5.414 13.152-12.33 25.228-20.636 35.693l-3.43 4.356c-18.822 23.814-26.503 34.109-38.437 49.269 6.264 5.826 14.655 9.418 23.896 9.418h88.581c22.932 0 41.555-18.554 41.555-41.463 0-22.146-17.433-40.247-39.344-41.378-5.187-12.869-17.773-21.948-32.513-21.948-7.285 0-14.059 2.235-19.672 6.053z" fill="#dae6e6" fill-rule="evenodd"/></g><g><path clip-rule="evenodd" d="m386.405 283.42h-67.633c-12.104 36.513-13.238 41.236-26.617 80.578h30.812c11.083-13.689 18.652-23.192 25.001-31.309 1.531-1.923 3.118-3.96 4.734-6.053l.17-.17c9.439-12.161 17.405-22.625 33.533-43.046z" fill="#ffcd69" fill-rule="evenodd"/></g><g><path clip-rule="evenodd" d="m318.772 283.42h-97.68c12.104 36.513 13.238 41.236 26.617 80.578h22.223 22.223c13.379-39.341 14.513-44.064 26.617-80.578z" fill="#ff7b79" fill-rule="evenodd"/></g><g><path clip-rule="evenodd" d="m221.092 283.42h-67.633c28.856 36.513 31.577 41.236 63.438 80.578h30.812c-13.379-39.341-14.513-44.064-26.617-80.578z" fill="#ffcd69" fill-rule="evenodd"/></g><g><path clip-rule="evenodd" d="m322.967 426.758h-106.07-16.554v49.919c0 13.632 11.168 24.776 24.803 24.776h89.573c13.634 0 24.803-11.143 24.803-24.776v-49.919z" fill="#ffcd69" fill-rule="evenodd"/></g><g><path d="m469.23 249.949c-7.947-13.922-22.702-22.63-39.087-22.63-1.224 0-2.441.053-3.652.151 5.136-18.195 7.675-37.652 7.279-57.354-.94-46.739-18.246-90.033-48.731-121.911-29.426-30.732-70.305-47.658-115.107-47.658s-85.682 16.926-115.119 47.67c-3.94 4.128-7.665 8.485-11.175 12.984-7.763-2.847-16.047-3.223-23.912-1.12-8.717-10.015-21.517-15.979-35.063-15.979-16.96 0-32.207 9.037-40.353 23.473-25.287 4.232-44.31 26.165-44.31 52.37 0 29.266 23.853 53.074 53.171 53.074h52.902c-.194 41.745 12.974 83.064 36.116 112.253 13.276 16.767 21.401 27.274 28.57 36.546 9.75 12.61 18.229 23.576 36.138 45.719v49.22h-22.031c-5.523 0-10 4.478-10 10s4.477 10 10 10h5.477v39.92c0 19.175 15.612 34.775 34.803 34.775h89.573c19.19 0 34.802-15.601 34.802-34.775v-39.92h5.477c5.523 0 10-4.478 10-10s-4.477-10-10-10h-22.031v-49.223c6.816-8.435 12.27-15.251 16.942-21.148 6.661 3.727 14.189 5.72 21.954 5.72h88.581c28.428 0 51.555-23.086 51.555-51.463.001-25.331-18.348-46.534-42.769-50.694zm-279.693-136.917h213.191c3.687 9.619 6.41 19.51 8.237 29.495h-222.121c1.804-4.939 2.791-10.268 2.791-15.822-.001-4.714-.743-9.309-2.098-13.673zm80.395-92.485c13.073 0 26.18 13.961 35.954 38.286 4.075 10.195 7.532 21.666 10.329 34.199h-92.567c2.796-12.532 6.252-23.999 10.322-34.183 9.782-24.341 22.889-38.302 35.962-38.302zm100.657 41.485c9.133 9.55 16.705 19.987 22.823 31h-56.743c-3.177-15.277-7.268-29.258-12.218-41.64-4.119-10.251-8.574-18.459-13.144-25.055 22.715 6.606 43.039 18.73 59.282 35.695zm-142.028-35.695c-4.573 6.599-9.032 14.813-13.154 25.072-4.944 12.369-9.034 26.347-12.211 41.623h-26.156c-2.543-2.394-5.354-4.531-8.431-6.321-1.738-5.271-4.607-10.132-8.355-14.285 2.854-3.591 5.856-7.077 9.017-10.389 16.246-16.969 36.572-29.094 59.29-35.7zm-208.561 93.608c0-17.62 13.803-32.142 31.424-33.061 3.89-.203 7.309-2.646 8.76-6.262 4.027-10.036 13.636-16.521 24.479-16.521 9.379 0 18.125 5.011 22.823 13.077 2.684 4.609 8.514 6.301 13.248 3.844 7.779-4.039 14.643-1.853 18.044-.189 5.944 2.905 10.333 8.478 11.453 14.54.599 3.243 2.759 5.982 5.772 7.321 9.496 4.221 15.632 13.645 15.632 24.01 0 14.51-11.841 26.314-26.396 26.314h-92.068c-18.291.002-33.171-14.835-33.171-33.073zm120.563 124.008h84.469c5.523 0 10-4.478 10-10s-4.477-10-10-10h-91.818c-4.764-16.141-7.246-33.473-7.145-50.934h19.169c11.136 0 21.366-3.939 29.372-10.492h238.823c1.382 21.135-1.053 42.162-6.743 61.426h-91.859c-5.523 0-10 4.478-10 10s4.477 10 10 10h84.492c-4.736 10.586-10.547 20.341-17.328 28.903-.152.192-.295.373-.446.563h-223.235c-.152-.192-.296-.374-.45-.568-6.776-8.546-12.576-18.309-17.301-28.898zm212.652 65.707c-4.314 5.578-8.379 10.831-13.129 16.885-.047.06-.096.12-.142.181-5.71 7.275-12.419 15.716-21.751 27.272h-12.095c5.195-15.431 8.214-24.734 11.596-35.161 2.27-6.996 4.795-14.779 8.304-25.417h39.825c-4.854 6.218-8.864 11.402-12.608 16.24zm-98.339 44.338c-6.534-19.303-9.874-29.596-13.678-41.323-1.808-5.573-3.779-11.647-6.276-19.255h70.021c-2.496 7.603-4.465 13.674-6.273 19.245-3.805 11.73-7.145 22.025-13.681 41.333zm-80.837-60.578h39.827c3.511 10.644 6.037 18.428 8.307 25.427 3.382 10.424 6.4 19.725 11.593 35.151h-12.098c-17.246-21.338-25.551-32.08-35.088-44.414-3.725-4.818-7.715-9.979-12.541-16.164zm155.482 183.258c0 8.147-6.64 14.775-14.802 14.775h-89.573c-8.162 0-14.803-6.628-14.803-14.775v-39.92h119.178zm-102.624-59.92v-42.76h86.07v42.76zm233.548-84.651h-88.581c-3.233 0-6.391-.629-9.333-1.814 2.184-2.812 4.312-5.562 6.503-8.395 7.184-9.287 15.327-19.812 28.641-36.625 8.232-10.394 15.189-22.214 20.734-35.012 3.601-1.921 7.604-2.942 11.734-2.942 10.275 0 19.397 6.157 23.238 15.686 1.455 3.61 4.872 6.048 8.759 6.248 16.744.865 29.86 14.654 29.86 31.392 0 17.348-14.156 31.462-31.555 31.462z"/><path d="m269.932 243.953h.057c5.523 0 9.972-4.478 9.972-10s-4.505-10-10.028-10-10 4.478-10 10 4.476 10 9.999 10z"/></g></g></svg>